<svg width="48" xmlns="http://www.w3.org/2000/svg" height="48" id="screenshot-be766993-4719-5719-afe8-615e9bb6a58e" viewBox="-1 -1 50 50" xmlns:xlink="http://www.w3.org/1999/xlink" fill="none" version="1.1"><g id="shape-be766993-4719-5719-afe8-615e9bb6a58e" rx="0" ry="0"><g id="shape-ddba1ba6-654d-539c-badb-0cb5b604374e" style="opacity: 1;"><g class="fills" id="fills-ddba1ba6-654d-539c-badb-0cb5b604374e"><path d="M0.00018310546875,-1.1368683772161603e-13L33.77801513671875,-1.1368683772161603e-13L48.00018310546875,9.142852783203125L48.00018310546875,10.28570556640625L48.00018310546875,48L0.00018310546875,48L0.00018310546875,-1.1368683772161603e-13Z" fill-rule="nonzero"/></g><g fill-rule="nonzero" id="strokes-9d869a2c-b4f1-80c9-8008-c3643d412178-ddba1ba6-654d-539c-badb-0cb5b604374e" class="strokes"><g class="inner-stroke-shape"><defs><clipPath id="inner-stroke-render-2-ddba1ba6-654d-539c-badb-0cb5b604374e-0"><use href="#stroke-shape-render-2-ddba1ba6-654d-539c-badb-0cb5b604374e-0"/></clipPath><path d="M0.00018310546875,-1.1368683772161603e-13L33.77801513671875,-1.1368683772161603e-13L48.00018310546875,9.142852783203125L48.00018310546875,10.28570556640625L48.00018310546875,48L0.00018310546875,48L0.00018310546875,-1.1368683772161603e-13Z" id="stroke-shape-render-2-ddba1ba6-654d-539c-badb-0cb5b604374e-0" style="fill: none; stroke-width: 4; stroke: rgb(25, 0, 208); stroke-opacity: 1;"/></defs><use href="#stroke-shape-render-2-ddba1ba6-654d-539c-badb-0cb5b604374e-0" clip-path="url('#inner-stroke-render-2-ddba1ba6-654d-539c-badb-0cb5b604374e-0')"/></g></g></g><g id="shape-4f3477c4-5cae-5646-891e-d3b0e45b5778" style="opacity: 1;"><g class="fills" id="fills-4f3477c4-5cae-5646-891e-d3b0e45b5778"><path d="M33.77801513671875,-1.1368683772161603e-13L0.00018310546875,-1.1368683772161603e-13L0.00018310546875,48L48.00018310546875,48L48.00018310546875,9.142852783203125L33.77801513671875,-1.1368683772161603e-13ZM33.77801513671875,-1.1368683772161603e-13L33.77801513671875,10.28570556640625L48.00018310546875,10.28570556640625M12.44451904296875,20.571441650390625L35.55584716796875,20.571441650390625M12.44451904296875,29.71429443359375L35.55584716796875,29.71429443359375M12.44451904296875,38.857147216796875L26.66668701171875,38.857147216796875"/></g><g id="strokes-9d869a2c-b4f1-80c9-8008-c3643d4cea62-4f3477c4-5cae-5646-891e-d3b0e45b5778" class="strokes"><g class="stroke-shape"><path d="M33.77801513671875,-1.1368683772161603e-13L0.00018310546875,-1.1368683772161603e-13L0.00018310546875,48L48.00018310546875,48L48.00018310546875,9.142852783203125L33.77801513671875,-1.1368683772161603e-13ZM33.77801513671875,-1.1368683772161603e-13L33.77801513671875,10.28570556640625L48.00018310546875,10.28570556640625M12.44451904296875,20.571441650390625L35.55584716796875,20.571441650390625M12.44451904296875,29.71429443359375L35.55584716796875,29.71429443359375M12.44451904296875,38.857147216796875L26.66668701171875,38.857147216796875" style="fill: none; stroke-width: 2; stroke: rgb(25, 0, 208); stroke-opacity: 1;"/></g></g></g></g></svg>